<svg xmlns="http://www.w3.org/2000/svg" viewBox="0 0 110 24"><defs><style>.cls-1{isolation:isolate;}.cls-2,.cls-3{fill:#ff4f12;}.cls-3{mix-blend-mode:screen;}.cls-4{fill:#f7a543;}</style></defs><title>Ресурс 28</title><g class="cls-1"><g id="Слой_2" data-name="Слой 2"><g id="Слой_1-2" data-name="Слой 1"><path class="cls-2" d="M13.14,4.78a2.58,2.58,0,0,1-.89-2,2.59,2.59,0,0,1,.89-2A3.36,3.36,0,0,1,15.47,0,3.46,3.46,0,0,1,17.8.76a2.46,2.46,0,0,1,.88,2,2.69,2.69,0,0,1-.88,2.06,3.34,3.34,0,0,1-2.33.81A3.32,3.32,0,0,1,13.14,4.78Z"/><rect class="cls-2" x="12.83" y="7.24" width="5.27" height="14.98"/><path class="cls-2" d="M33.25,7.93a6.84,6.84,0,0,1,2.66,2.7,8.13,8.13,0,0,1,1,4.07,8.23,8.23,0,0,1-1,4.09,6.83,6.83,0,0,1-2.66,2.72,7.38,7.38,0,0,1-3.73,1,5.48,5.48,0,0,1-4.43-1.74v1.49h-5V1.71h5.27V8.54A5.6,5.6,0,0,1,29.52,7,7.57,7.57,0,0,1,33.25,7.93Zm-2.56,9.41a3.71,3.71,0,0,0,.89-2.64,3.66,3.66,0,0,0-.89-2.6,3.22,3.22,0,0,0-4.55,0,3.66,3.66,0,0,0-.88,2.6,3.71,3.71,0,0,0,.88,2.64,3.18,3.18,0,0,0,4.55,0Z"/><path class="cls-3" d="M49.86,8.65a6.71,6.71,0,0,1,1.7,5v8.57H46.29V14.51c0-2-.82-3.07-2.46-3.07a2.83,2.83,0,0,0-2.18.89A3.76,3.76,0,0,0,40.83,15v7.24H35.57v-15h5V8.87a5.93,5.93,0,0,1,2.11-1.39A7,7,0,0,1,45.35,7,6.18,6.18,0,0,1,49.86,8.65Z"/><path class="cls-3" d="M66.43,16.06H55.51a3.05,3.05,0,0,0,1.29,1.78,4.37,4.37,0,0,0,2.4.62,5.28,5.28,0,0,0,1.87-.3,5.58,5.58,0,0,0,1.59-1L65.44,20Q63.25,22.47,59,22.47a10.18,10.18,0,0,1-4.63-1,7.3,7.3,0,0,1-4.18-6.77,7.36,7.36,0,0,1,4-6.71,9.43,9.43,0,0,1,8.31-.07,7.07,7.07,0,0,1,2.9,2.68,7.85,7.85,0,0,1,1.07,4.16S66.49,15.23,66.43,16.06Zm-10-4.65a3.11,3.11,0,0,0-1,1.88h6.15a3.06,3.06,0,0,0-1-1.88,3.35,3.35,0,0,0-4.07,0Z"/><path class="cls-3" d="M77.28,21.61a5.22,5.22,0,0,1-1.62.64,9.52,9.52,0,0,1-2,.22A6.49,6.49,0,0,1,69.1,21a5.5,5.5,0,0,1-1.58-4.28v-5h-3.2V7.79h3.2V3.9h5.27V7.79h3.44v3.93H72.79v5A1.74,1.74,0,0,0,73.22,18a1.53,1.53,0,0,0,1.15.46A2.82,2.82,0,0,0,76,17.94Z"/><path class="cls-2" d="M90.13,7.5a8.21,8.21,0,0,1,3-.26V12a10.13,10.13,0,0,0-1.2-.09,3.58,3.58,0,0,0-2.64.67,3.67,3.67,0,0,0-1,2.79v6.88H83v-15h5V9A4.93,4.93,0,0,1,90.13,7.5Z"/><path class="cls-2" d="M110,7.24v15h-5v-1.6A5.44,5.44,0,0,1,103,22a6.62,6.62,0,0,1-2.47.47,6.27,6.27,0,0,1-4.64-1.72,6.9,6.9,0,0,1-1.74-5.14V7.24h5.27v7.52a3.83,3.83,0,0,0,.64,2.46,2.27,2.27,0,0,0,1.86.77,2.6,2.6,0,0,0,2-.87,3.86,3.86,0,0,0,.79-2.67V7.24Z"/><path class="cls-4" d="M79.67,23.12a3,3,0,0,1-.91-2.24,3,3,0,0,1,.9-2.24,3.41,3.41,0,0,1,4.53,0,3,3,0,0,1,.89,2.24,3,3,0,0,1-.9,2.24,3.33,3.33,0,0,1-4.51,0Z"/><path class="cls-3" d="M11.06,13.57A24,24,0,0,0,8,12.93a14.74,14.74,0,0,1-2.1-.42c-.43-.14-.64-.39-.64-.74A.87.87,0,0,1,5.82,11a4.39,4.39,0,0,1,1.83-.29A9.33,9.33,0,0,1,9.91,11l.06-.11,1.51-3.42-.61-.15A16.14,16.14,0,0,0,7.62,7a10.86,10.86,0,0,0-3.95.65A5.69,5.69,0,0,0,1.16,9.41,4.12,4.12,0,0,0,.3,12a3.76,3.76,0,0,0,.92,2.7A4.67,4.67,0,0,0,3.4,16a20.69,20.69,0,0,0,3.06.58,13.3,13.3,0,0,1,2.06.4c.44.14.66.38.66.71a.83.83,0,0,1-.54.76,4.66,4.66,0,0,1-1.82.26A10.89,10.89,0,0,1,4,18.34a9.09,9.09,0,0,1-2.44-1L0,20.92A10,10,0,0,0,2.94,22a16,16,0,0,0,3.71.43,11.3,11.3,0,0,0,4-.64,5.62,5.62,0,0,0,2.53-1.75,4,4,0,0,0,.86-2.53,3.75,3.75,0,0,0-.9-2.67A4.76,4.76,0,0,0,11.06,13.57Z"/></g></g></g></svg>